<?xml version="1.0" encoding="utf-8"?>
<!-- Generator: Adobe Illustrator 26.0.2, SVG Export Plug-In . SVG Version: 6.00 Build 0)  -->
<svg version="1.2" baseProfile="tiny" id="Layer_1" focusable="false"
	 xmlns="http://www.w3.org/2000/svg" xmlns:xlink="http://www.w3.org/1999/xlink" x="0px" y="0px" viewBox="0 0 384 512"
	 overflow="visible" xml:space="preserve">
<path d="M336,0H48C21.5,0,0,21.5,0,48v431.9c0,24.7,26.8,40.1,48.1,27.6L192,423.6l143.9,83.9c21.3,11.6,48.1-2.9,48.1-27.6V48
	C384,21.5,362.5,0,336,0z M336,452l-144-84L48,452V54c0-3.4,2.6-6,5.1-6h276c4.3,0,6.9,2.6,6.9,6V452z"/>
<polygon points="130.4,363.4 83.1,391 83,391.1 83,315.9 "/>
<polygon points="301,83 301,159.4 224.8,83 "/>
<polygon points="301,234.4 301,309.4 83,90.8 83,83 149.9,83 "/>
<polygon points="301,384.4 301,391.1 192,327.5 177.7,335.8 83,240.8 83,165.9 "/>
</svg>
