<svg xmlns="http://www.w3.org/2000/svg" viewBox="0 0 44.16 255.81"><defs><style>.cls-1{isolation:isolate;}.cls-2{fill:#fff;}.cls-3{fill:#fd0;}.cls-4{fill:#fffcff;}.cls-5{fill:#0ce7ff;}.cls-6{fill:#edeeff;mix-blend-mode:screen;}.cls-7{fill:#ec4848;}</style></defs><g class="cls-1"><g id="Layer_2" data-name="Layer 2"><g id="Layer_1-2" data-name="Layer 1"><path id="Path_3231" data-name="Path 3231" class="cls-2" d="M22.25,52a12.57,12.57,0,0,0,5.35-1,8,8,0,0,0,3.25-2.65,10.26,10.26,0,0,0,1.59-3.85,23.48,23.48,0,0,0,.42-4.5V38.51h11.3v1.54q0,10.71-5.6,16.48T22.25,62.3Q12,62.3,6,56.06T0,37.83V24.48A32.2,32.2,0,0,1,1.54,14.16,20.92,20.92,0,0,1,6,6.46a19.46,19.46,0,0,1,7-4.79A24.22,24.22,0,0,1,22.25,0a26.66,26.66,0,0,1,9.42,1.54A18.28,18.28,0,0,1,38.56,6a18.92,18.92,0,0,1,4.19,7,28.37,28.37,0,0,1,1.41,9.24v1.54H32.86V22.25A18.15,18.15,0,0,0,32.35,18a11.11,11.11,0,0,0-1.71-3.85,9,9,0,0,0-3.25-2.78,11.09,11.09,0,0,0-5.14-1.07,10.37,10.37,0,0,0-4.88,1.07A9.89,9.89,0,0,0,14,14.25a12.43,12.43,0,0,0-2,4.28,19.84,19.84,0,0,0-.64,5.09V38.68A22.35,22.35,0,0,0,11.9,44a12,12,0,0,0,1.88,4.24,8.55,8.55,0,0,0,3.38,2.78,11.85,11.85,0,0,0,5.09,1Z"/><path id="Path_3232" data-name="Path 3232" class="cls-2" d="M2.57,93.63H17.72V71.72H4.37V61.45H28.5V93.63H40.82V103.9H2.57Z"/><path id="Path_3233" data-name="Path 3233" class="cls-2" d="M13.35,146.69H2.57V102.32H13.35v8.25h1.54A11.27,11.27,0,0,1,19.6,105a14.46,14.46,0,0,1,7.62-2A16.71,16.71,0,0,1,33,104a12.77,12.77,0,0,1,4.75,3A13.92,13.92,0,0,1,41,112.29a22,22,0,0,1,1.16,7.53v26.87H31.32V122.56a10.77,10.77,0,0,0-2.18-7.15,7.73,7.73,0,0,0-6.29-2.61q-4.8,0-7.15,3.21t-2.35,8.6Z"/><path id="Path_3234" data-name="Path 3234" class="cls-3" d="M43.22,153.19a21.25,21.25,0,0,0-1.11-6.6L42,146.3a19.18,19.18,0,0,0-3.76-6.5,20.18,20.18,0,0,0-6.51-4.88,4,4,0,0,0-.43-.19,21.41,21.41,0,0,0-9-1.74A22.08,22.08,0,0,0,14,134.58l-.64.27A20.86,20.86,0,0,0,7.19,139a20.11,20.11,0,0,0-4.58,6.84l0,.1a23.14,23.14,0,0,0-1.63,8.8v.52a26.88,26.88,0,0,0,1.58,9.5A20.06,20.06,0,0,0,7,171.85a18.94,18.94,0,0,0,2,1.73,20.71,20.71,0,0,1,5-2.67,24.21,24.21,0,0,1,8.68-1.54q8.46,0,13.86,4.16a13.87,13.87,0,0,0,2.23-2.24,17.28,17.28,0,0,0,2.14-3.38l-9.24-5.13a8.44,8.44,0,0,1-3.08,3.38,11.21,11.21,0,0,1-6.16,1.41,11.77,11.77,0,0,1-3.9-.64,10.47,10.47,0,0,1-3.25-1.8A8.54,8.54,0,0,1,13,162.39a8.19,8.19,0,0,1-.9-3.46H43.22Zm-31-3.51a9.53,9.53,0,0,1,3.34-4.83,10.18,10.18,0,0,1,6.67-2.1,11.27,11.27,0,0,1,6.81,2,7.66,7.66,0,0,1,3.21,5Z"/><path class="cls-4" d="M36.45,173.53a15,15,0,0,1-1.32,1,19.55,19.55,0,0,1-5.3,2.4,25.46,25.46,0,0,1-7.32.94,23.67,23.67,0,0,1-8.73-1.54,19.06,19.06,0,0,1-4.84-2.72,20.71,20.71,0,0,1,5-2.67,24.21,24.21,0,0,1,8.68-1.54Q31.05,169.37,36.45,173.53Z"/><path class="cls-5" d="M33.38,194.79,44,197.44A20.59,20.59,0,0,1,37.1,209.6a18.55,18.55,0,0,1-7.34,3.76h-5v-9.57A9.21,9.21,0,0,0,30,201.46,11.9,11.9,0,0,0,33.38,194.79Z"/><path class="cls-5" d="M30.13,182.38q-2.74-2.74-7.71-2.74a11.25,11.25,0,0,0-4.36.85,11,11,0,0,0-3.6,2.45A11.53,11.53,0,0,0,12,186.79a13.9,13.9,0,0,0-.89,5.09v.51a13.25,13.25,0,0,0,.89,5A10.69,10.69,0,0,0,14,200.51V212.8l-.13,0a20.75,20.75,0,0,1-7.06-4.19,19.34,19.34,0,0,1-4.71-6.76,23.27,23.27,0,0,1-1.71-9.16v-1a23.85,23.85,0,0,1,1.71-9.24,20.56,20.56,0,0,1,4.75-7,20.19,20.19,0,0,1,2.14-1.78,19.06,19.06,0,0,0,4.84,2.72,23.67,23.67,0,0,0,8.73,1.54,25.46,25.46,0,0,0,7.32-.94,19.55,19.55,0,0,0,5.3-2.4,15,15,0,0,0,1.32-1L37,174a20.33,20.33,0,0,1,7,12.16l-10.61,2.73A11.09,11.09,0,0,0,30.13,182.38Z"/><path class="cls-6" d="M29.76,213.36a28.08,28.08,0,0,1-7.17.86A25.63,25.63,0,0,1,14,212.8V200.51a6.38,6.38,0,0,0,.51.53,10.15,10.15,0,0,0,3.6,2.18,13.21,13.21,0,0,0,4.36.73,15.33,15.33,0,0,0,2.31-.16v9.57Z"/><path class="cls-7" d="M14.46,201a6.38,6.38,0,0,1-.51-.53V195.9H24.73v7.89a15.33,15.33,0,0,1-2.31.16,13.21,13.21,0,0,1-4.36-.73A10.15,10.15,0,0,1,14.46,201Z"/><path class="cls-7" d="M24.73,223.63V243c0,1.71.77,2.57,2.31,2.57H38.51v10.27h-18a6.37,6.37,0,0,1-4.75-1.88,6.57,6.57,0,0,1-1.84-4.8v-25.5H1.37V213.36H14v-.56a25.63,25.63,0,0,0,8.64,1.42,28.08,28.08,0,0,0,7.17-.86H40.05v10.27Z"/></g></g></g></svg>