<svg id="Layer_1" data-name="Layer 1" xmlns="http://www.w3.org/2000/svg" viewBox="0 0 1000 1000"><defs><style>.cls-1{fill:#fff;}.cls-2{fill:#fd0;}.cls-3{fill:#fffcff;}.cls-4{fill:#0ce7ff;}.cls-5{fill:#edeeff;}.cls-6{fill:#ec4848;}</style></defs><path class="cls-1" d="M284.37,446q16.33,0,26.87-4.94a40.06,40.06,0,0,0,16.33-13.33,50.66,50.66,0,0,0,7.95-19.34,117.27,117.27,0,0,0,2.15-22.57V378h56.74v7.74q0,53.73-28.15,82.75t-81.89,29q-51.59,0-81.67-31.38T172.6,374.6V307.54q0-28.79,7.74-51.8t22.36-38.68A97.73,97.73,0,0,1,237.94,193q20.64-8.37,46.43-8.38,26.64,0,47.28,7.74a91.57,91.57,0,0,1,34.61,22.35,95,95,0,0,1,21.06,35.25q7.1,20.64,7.09,46.43v7.73H337.67v-7.73a91.9,91.9,0,0,0-2.58-21.5,56.41,56.41,0,0,0-8.59-19.34,44.82,44.82,0,0,0-16.34-14q-10.32-5.37-25.79-5.37-14.19,0-24.5,5.37a50,50,0,0,0-17.2,14.61,62.21,62.21,0,0,0-10.1,21.5,100,100,0,0,0-3.22,25.57V378.9a112.37,112.37,0,0,0,3,26.87A61.19,61.19,0,0,0,241.81,427a42.83,42.83,0,0,0,17,14Q269.32,446,284.37,446Z"/><path class="cls-1" d="M411.83,439.94h72.22v-110H417V278.31H538.21V439.94h61.9v51.58H411.83ZM551.54,215.12a40.43,40.43,0,0,1-3.23,16.12,39,39,0,0,1-8.81,12.9,43.53,43.53,0,0,1-13.11,8.6A39.62,39.62,0,0,1,510.7,256a39.1,39.1,0,0,1-15.91-3.22,44.13,44.13,0,0,1-12.89-8.6,38.81,38.81,0,0,1-8.81-12.9,41.84,41.84,0,0,1,0-32.24,38.87,38.87,0,0,1,8.81-12.89,44.13,44.13,0,0,1,12.89-8.6,38.94,38.94,0,0,1,15.91-3.22,39.45,39.45,0,0,1,15.69,3.22,43.53,43.53,0,0,1,13.11,8.6A39,39,0,0,1,548.31,199,40.5,40.5,0,0,1,551.54,215.12Z"/><path class="cls-1" d="M683,491.52H628.8V278.31H683v31.81h7.74a56.62,56.62,0,0,1,23.64-27.94q16.33-9.89,38.26-9.89a84.11,84.11,0,0,1,29,4.95,64.8,64.8,0,0,1,23.85,15.26q10.32,10.32,16.12,26.22t5.81,37.83v135H773.23V370.3q0-22.77-11-35.89T730.68,321.3q-24.09,0-35.9,16.12T683,380.62Z"/><path class="cls-2" d="M423.25,764.43l-25.87-14.37q-4.74,9.88-15.48,17T351,774.13a59.17,59.17,0,0,1-19.55-3.22,53.16,53.16,0,0,1-16.34-9,42.88,42.88,0,0,1-11.17-13.76,41.52,41.52,0,0,1-4.52-17.4H414.81q-.6-6.47-.61-13.33v-5.16q0-25.79,8.6-46.43a106.31,106.31,0,0,1,13.79-24q-2.64-3.64-5.68-7.15-12.9-14.83-32.68-24.5T351,600.46A110.42,110.42,0,0,0,309,608.41a105.88,105.88,0,0,0-34.17,22.15,101.34,101.34,0,0,0-23,34.38q-8.37,20.22-8.37,44.71v2.58q0,26.65,7.95,47.71a100.7,100.7,0,0,0,22.35,35.69A96.85,96.85,0,0,0,308,818q19.79,7.74,43.85,7.74,21.06,0,36.76-4.72a99.9,99.9,0,0,0,26.65-12,75.45,75.45,0,0,0,17.84-16.12c1.44-1.83,2.77-3.65,4-5.45A99.11,99.11,0,0,1,423.25,764.43ZM317,660q12.88-10.51,33.52-10.53t34.17,9.88q13.56,9.9,16.13,24.94H300.23Q304.09,670.54,317,660Z"/><path class="cls-3" d="M455.84,701.91v28.81h-41q-.6-6.47-.61-13.33v-5.16q0-25.79,8.6-46.43a106.31,106.31,0,0,1,13.79-24,95.09,95.09,0,0,1,13.23,25.52A108,108,0,0,1,455.84,701.91Z"/><path class="cls-4" d="M468.36,713.52v2.58a65.51,65.51,0,0,0,4.52,25.14,51.62,51.62,0,0,0,12.25,18.27,50.26,50.26,0,0,0,18.05,11,65.37,65.37,0,0,0,21.93,3.65q24.92,0,38-12.47t17-33.53l45.27,11.33v27.71a99.23,99.23,0,0,1-26.57,35.33q-27.3,23.21-72.86,23.21a129.67,129.67,0,0,1-44.07-7.31,103.31,103.31,0,0,1-35.46-21.06,89.19,89.19,0,0,1-9.37-10,99.11,99.11,0,0,1-13.82-23c-.15-.35-.31-.69-.45-1a109,109,0,0,1-8-32.67h41V701.91a108,108,0,0,0-6-34.6,95.09,95.09,0,0,0-13.23-25.52,96.58,96.58,0,0,1,10.07-11.23,104.57,104.57,0,0,1,35.67-22.36A122.3,122.3,0,0,1,526,600.46q22.74,0,41.09,6h-4.85v51.59h62.71q.26.54.48,1.08v27.64l-45.27,11.69a55.82,55.82,0,0,0-16.34-32.68Q550,652,525.11,652.05a56.56,56.56,0,0,0-21.93,4.3,53.75,53.75,0,0,0-18.05,12.25,57.81,57.81,0,0,0-12.25,19.34A68.93,68.93,0,0,0,468.36,713.52Z"/><path class="cls-5" d="M624.92,658.07H562.21V606.48h4.85a93.3,93.3,0,0,1,31.33,17.2A98.86,98.86,0,0,1,624.92,658.07Z"/><path class="cls-6" d="M679.57,658.07v97.14q0,12.91,11.61,12.9h57.6V819.7H658.51q-14.62,0-23.86-9.46t-9.25-24.08V658.07h-.48a98.86,98.86,0,0,0-26.53-34.39,93.3,93.3,0,0,0-31.33-17.2H625.4V518.79h54.17v87.69h76.94v51.59Z"/></svg>