<?xml version="1.0" encoding="utf-8"?>
<!-- Generator: Adobe Illustrator 26.0.2, SVG Export Plug-In . SVG Version: 6.00 Build 0)  -->
<svg version="1.2" baseProfile="tiny" id="Layer_1" focusable="false"
	 xmlns="http://www.w3.org/2000/svg" xmlns:xlink="http://www.w3.org/1999/xlink" x="0px" y="0px" viewBox="0 0 512 512"
	 overflow="visible" xml:space="preserve">
<path d="M46.2,260.1c-9.3-6.9-18.1-14.5-26.4-22.8C17.3,243,16,249.4,16,256c0,26.5,21.5,48,48,48c13.8,0,26.2-5.8,35-15.1
	C80.5,282,62.7,272.4,46.2,260.1z M64,368c-26.5,0-48,21.5-48,48s21.5,48,48,48s48-21.5,48-48S90.5,368,64,368z M480,384H192
	c-17.7,0-32,14.3-32,32s14.3,32,32,32h288c17.7,0,32-14.3,32-32S497.7,384,480,384z M480,224H328.6c-11.7,13.6-24.8,25.8-38.8,36.2
	c-15.9,11.7-32.8,21-50.4,27.8H480c17.7,0,32-14.3,32-32S497.7,224,480,224z M480,64H348.7c8.3,12.5,15.6,25.9,21.8,40l0.6,1.3
	l0.5,1.4c1,2.6,3.9,11.4,4.3,21.3H480c17.7,0,32-14.3,32-32C512,78.3,497.7,64,480,64z"/>
<g>
	<path d="M168,74.7c-1.3,0-3.3,0.2-5,0.5c0.7,1.2,1.3,2.5,1.9,3.8c0.9-1.5,2-2.9,3.2-4.2H168z"/>
	<path d="M335.8,128c-0.3-2.6-1-5.5-1.8-7.8c-9.2-20.9-21.1-39.9-35.1-56.2C264.9,24.4,218.7,0,168,0C123.6,0,82.6,18.7,50.4,50
		c-13,12.5-24.5,27.1-34.3,43.3c-5.2,8.5-9.9,17.6-14.1,27c-1.1,3.1-2,7.5-2,10.4c0,2.9,0.9,7.3,2,9.9c11.8,26.9,28,50.6,47.3,69.7
		c18.3,18,39.4,32,62.4,40.7c15.5,5.9,31.8,9.4,48.7,10.2c2.5,0.1,5.1,0.2,7.6,0.2c38.1,0,73.6-13.7,103.3-37.3
		c26.2-20.8,47.9-49.4,62.7-82.9c1.1-3.1,2-8,2-10.4C336,129.9,335.9,129,335.8,128z M168.1,214.7c-43.4,0-79.2-33-83.6-75.2
		c-0.3-2.9-0.5-5.8-0.5-8.8c0-22.1,8.5-42.1,22.4-57.1C121.8,57,143.7,46.7,168,46.7c19.2,0,36.9,6.4,51.1,17.3
		c19.4,14.8,32.1,37.9,32.9,64c0,0.9,0,1.8,0,2.7C252,177,214.4,214.7,168.1,214.7z"/>
	<path d="M224,130.7c0,30.9-25.1,56-56,56s-56-25.6-56-56c0-1.4,0.2-3.2,0.4-5c4.9,3,11.6,5,18.3,5c14.3,0,26.7-8,33-19.8
		c2.8-5.2,4.4-11.2,4.4-17.5c0-5.1-1.1-10-3-14.4c0.9-1.5,2-2.9,3.2-4.2c29.5,0.1,54.4,23.7,55.8,53.3
		C224,128.9,224,129.8,224,130.7z"/>
</g>
</svg>
