<?xml version="1.0" encoding="utf-8"?>
<!-- Generator: Adobe Illustrator 26.0.2, SVG Export Plug-In . SVG Version: 6.00 Build 0)  -->
<svg version="1.2" baseProfile="tiny" id="Layer_1" xmlns="http://www.w3.org/2000/svg" xmlns:xlink="http://www.w3.org/1999/xlink"
	 x="0px" y="0px" viewBox="0 0 1000 1000" overflow="visible" xml:space="preserve">
<rect x="-623.7" y="208.8" width="305.7" height="1766.4"/>
<path fill="#111111" d="M499.5,1.8h1.4c275.7,0,499.1,223.5,499.1,499.1v0c0,275.7-223.5,499.1-499.1,499.1h-1.4
	C223.8,1000,0.3,776.5,0.3,500.9v0C0.3,225.2,223.8,1.8,499.5,1.8z"/>
<rect x="-623.7" y="210.1" fill="none" width="304.7" height="1765.1"/>
<path id="Path_3231_00000183232211856161767410000004295091128401093774_" fill="#FFFFFF" d="M-470.1,569.1c15,0,27.3-2.3,36.9-6.8
	c9.6-4.5,17.1-10.6,22.4-18.3c5.3-7.7,9-16.5,10.9-26.6c2-10.2,3-20.6,3-31v-10.6h78v10.6c0,49.2-12.9,87.1-38.7,113.7
	c-25.8,26.6-63.3,39.8-112.5,39.8c-47.2,0-84.6-14.4-112.2-43.1c-27.6-28.7-41.3-70.7-41.3-125.8v-92.1c0-26.4,3.5-50.1,10.6-71.2
	c7.1-21.1,17.3-38.8,30.7-53.1c13.4-14.3,29.5-25.4,48.4-33.1c18.9-7.7,40.2-11.5,63.8-11.5c24.4,0,46.1,3.5,65,10.6
	c18.9,7.1,34.7,17.3,47.5,30.7c12.8,13.4,22.4,29.5,28.9,48.4c6.5,18.9,9.7,40.2,9.7,63.8v10.6h-78v-10.6c0-9.9-1.2-19.9-3.5-29.5
	c-2.2-9.5-6.2-18.5-11.8-26.6c-5.5-7.9-13-14.3-22.4-19.2c-9.4-4.9-21.3-7.4-35.4-7.4c-13,0-24.2,2.5-33.7,7.4
	c-9.3,4.8-17.4,11.7-23.6,20.1c-6.3,8.5-10.9,18.3-13.9,29.5c-3,11.5-4.5,23.3-4.4,35.2V477c0,13.4,1.4,25.7,4.1,36.9
	c2.7,11.2,7.1,21,13,29.2c6,8.3,14,14.9,23.3,19.2C-495.6,566.8-483.9,569.1-470.1,569.1"/>
<path id="Path_3232_00000106845327627941097050000000948534354632071103_" fill="#FFFFFF" d="M-605.9,856.1h104.5V704.9h-92.1v-70.9
	H-427v222h85V927h-264V856.1z"/>
<path id="Path_3233_00000161607577283702853250000013863518016763903134_" fill="#FFFFFF" d="M-531.5,1222.2h-74.4V916h74.4v57h10.6
	c6.7-16.5,17.5-29.3,32.5-38.4c15-9,32.5-13.6,52.6-13.6c13.6-0.1,27.1,2.2,39.9,6.8c12.3,4.5,23.5,11.6,32.8,21
	c9.4,9.4,16.8,21.5,22.1,36c5.3,14.6,8,31.9,8,52v185.4h-74.4v-166.5c0-20.9-5-37.3-15.1-49.3c-10-12-24.5-18-43.4-18
	c-22.1,0-38.5,7.4-49.3,22.1c-10.8,14.8-16.2,34.5-16.2,59.3V1222.2z"/>
<path id="Path_3234_00000149377070044253816330000010533948200509586622_" fill="#FFDD00" d="M-540.4,1306.7
	c0.3,8.3,2.4,16.5,6.2,23.9c3.7,7.3,9,13.7,15.4,18.9c6.7,5.4,14.3,9.6,22.4,12.4c8.6,3,17.7,4.5,26.9,4.4c18.5,0,32.7-3.3,42.5-9.8
	c9.8-6.5,16.9-14.3,21.3-23.3l63.8,35.4c-3.5,7.5-8.5,15.3-14.8,23.3c-6.3,8.1-14.5,15.5-24.5,22.1c-10,6.7-22.2,12.2-36.6,16.5
	c-14.4,4.3-31.2,6.5-50.5,6.5c-22.1,0-42.1-3.5-60.2-10.6c-17.7-6.8-33.7-17.3-46.9-30.7c-13.2-13.4-23.4-29.7-30.7-49
	c-7.3-19.3-10.9-41.1-10.9-65.5v-3.5c0-22.4,3.8-42.9,11.5-61.4c7.7-18.5,18.2-34.2,31.6-47.2c13.5-13.1,29.5-23.4,46.9-30.4
	c17.9-7.3,37.1-10.9,57.6-10.9c25.2,0,46.9,4.4,65,13.3c18.1,8.8,33.1,20.1,44.9,33.7c11.5,13.1,20.4,28.4,26,44.9
	c5.5,16.3,8.3,32.2,8.3,47.5v39.6L-540.4,1306.7z M-470.1,1195.1c-18.9,0-34.3,4.8-46.1,14.5c-11.8,9.7-19.5,20.8-23,33.4H-401
	c-2.4-13.8-9.7-25.2-22.1-34.3C-435.6,1199.6-451.2,1195.1-470.1,1195.1"/>
<path id="Path_3235_00000093139863862099740740000014682572381345909395_" fill="#0CE7FF" d="M-320.1,1572.4
	c-6.7,34.6-22.5,62.6-47.5,83.9c-25,21.2-58.4,31.9-100.1,31.9c-21.7,0-41.8-3.3-60.5-10c-18.7-6.7-34.9-16.3-48.7-28.9
	c-13.8-12.6-24.6-28.1-32.5-46.7c-7.9-18.5-11.8-39.6-11.8-63.2v-7.1c0-23.6,3.9-44.9,11.8-63.8c7.9-18.9,18.8-35,32.8-48.4
	c14.1-13.5,30.8-23.9,49-30.7c18.7-7.1,38.7-10.6,59.9-10.6c40.9,0,74.1,10.6,99.5,31.9c25.4,21.3,41.4,49.2,48.1,83.9l-73.2,18.9
	c-2.4-17.3-9.8-32.3-22.4-44.9c-12.6-12.6-30.3-18.9-53.1-18.9c-10.3-0.1-20.6,1.9-30.1,5.9c-9.3,3.9-17.8,9.6-24.8,16.8
	c-7.1,7.3-12.7,16.1-16.8,26.6c-4.1,10.4-6.2,22.1-6.2,35.1v3.6c0,13,2.1,24.5,6.2,34.5c4.1,10,9.7,18.4,16.8,25.1
	c7.1,6.7,15.6,11.8,24.8,15c9.7,3.4,19.9,5.1,30.1,5c22.8,0,40.2-5.7,52.3-17.1c12-11.4,19.8-26.8,23.3-46L-320.1,1572.4z"/>
<path id="Path_3236_00000143607289315203582600000001373805222612488594_" fill="#EC4848" d="M-614.2,1682.3h86.8v-120.5h74.4v120.5
	h105.7v70.9H-453v133.5c0,11.8,5.3,17.7,15.9,17.7h79.1v70.9h-124c-13.4,0-24.3-4.3-32.8-13c-8.5-8.7-12.7-19.7-12.7-33.1v-176
	h-86.8V1682.3z"/>
<g>
	<g>
		<path fill="#FFFFFF" d="M284.4,446c10.9,0,19.8-1.6,26.9-4.9c7-3.3,12.5-7.7,16.3-13.3c3.9-5.6,6.5-12,8-19.3
			c1.4-7.3,2.1-14.8,2.1-22.6V378h56.7v7.7c0,35.8-9.4,63.4-28.2,82.7c-18.8,19.3-46.1,29-81.9,29c-34.4,0-61.6-10.5-81.7-31.4
			c-20.1-20.9-30.1-51.4-30.1-91.6v-67.1c0-19.2,2.6-36.5,7.7-51.8c5.2-15.3,12.6-28.2,22.4-38.7c9.7-10.5,21.5-18.5,35.2-24.1
			c13.8-5.6,29.2-8.4,46.4-8.4c17.8,0,33.5,2.6,47.3,7.7c13.8,5.2,25.3,12.6,34.6,22.4c9.3,9.7,16.3,21.5,21.1,35.2
			c4.7,13.8,7.1,29.2,7.1,46.4v7.7h-56.7v-7.7c0-7.2-0.9-14.3-2.6-21.5c-1.7-7.2-4.6-13.6-8.6-19.3c-4-5.7-9.5-10.4-16.3-14
			c-6.9-3.6-15.5-5.4-25.8-5.4c-9.5,0-17.6,1.8-24.5,5.4c-6.9,3.6-12.6,8.5-17.2,14.6c-4.6,6.2-8,13.3-10.1,21.5
			c-2.1,8.2-3.2,16.7-3.2,25.6v75.7c0,9.7,1,18.7,3,26.9c2,8.2,5.2,15.3,9.5,21.3c4.3,6,10,10.7,17,14
			C265.8,444.3,274.3,446,284.4,446z"/>
		<path fill="#FFFFFF" d="M411.8,439.9H484v-110H417v-51.6h121.2v161.6h61.9v51.6H411.8V439.9z M551.5,215.1
			c0,5.7-1.1,11.1-3.2,16.1c-2.1,5-5.1,9.3-8.8,12.9c-3.7,3.6-8.1,6.4-13.1,8.6c-5,2.1-10.2,3.2-15.7,3.2c-5.7,0-11-1.1-15.9-3.2
			c-4.9-2.1-9.2-5-12.9-8.6c-3.7-3.6-6.7-7.9-8.8-12.9c-2.1-5-3.2-10.4-3.2-16.1c0-5.7,1.1-11.1,3.2-16.1c2.1-5,5.1-9.3,8.8-12.9
			c3.7-3.6,8-6.4,12.9-8.6c4.9-2.1,10.2-3.2,15.9-3.2c5.4,0,10.7,1.1,15.7,3.2c5,2.1,9.4,5,13.1,8.6c3.7,3.6,6.7,7.9,8.8,12.9
			C550.5,204,551.5,209.4,551.5,215.1z"/>
		<path fill="#FFFFFF" d="M683,491.5h-54.2V278.3H683v31.8h7.7c4.9-12,12.7-21.3,23.6-27.9c10.9-6.6,23.6-9.9,38.3-9.9
			c10.3,0,20,1.7,29,4.9c9,3.3,17,8.4,23.9,15.3c6.9,6.9,12.3,15.6,16.1,26.2c3.9,10.6,5.8,23.2,5.8,37.8v135h-54.2V370.3
			c0-15.2-3.7-27.1-11-35.9c-7.3-8.7-17.8-13.1-31.6-13.1c-16.1,0-28,5.4-35.9,16.1c-7.9,10.7-11.8,25.1-11.8,43.2V491.5z"/>
	</g>
	<g>
		<path fill="#FFDD00" d="M423.3,764.4l-25.9-14.4c-3.2,6.6-8.3,12.2-15.5,17c-7.2,4.7-17.5,7.1-30.9,7.1c-6.9,0-13.4-1.1-19.6-3.2
			c-6.2-2.2-11.6-5.2-16.3-9c-4.7-3.9-8.5-8.5-11.2-13.8c-2.7-5.3-4.2-11.1-4.5-17.4h115.4c-0.4-4.3-0.6-8.8-0.6-13.3v-5.2
			c0-17.2,2.9-32.7,8.6-46.4c3.7-8.8,8.3-16.8,13.8-24c-1.8-2.4-3.7-4.8-5.7-7.2c-8.6-9.9-19.5-18-32.7-24.5
			c-13.2-6.4-28.9-9.7-47.3-9.7c-14.9,0-28.9,2.7-41.9,8c-13,5.3-24.4,12.7-34.2,22.1c-9.7,9.5-17.4,20.9-23,34.4
			c-5.6,13.5-8.4,28.4-8.4,44.7v2.6c0,17.8,2.6,33.7,8,47.7c5.3,14,12.7,25.9,22.3,35.7c9.6,9.7,21,17.2,34.2,22.3
			c13.2,5.2,27.8,7.7,43.8,7.7c14,0,26.3-1.6,36.8-4.7c10.5-3.2,19.3-7.2,26.7-12c7.3-4.9,13.2-10.2,17.8-16.1
			c1.4-1.8,2.8-3.7,4-5.5C431.6,780.6,427,773,423.3,764.4z M317,660c8.6-7,19.8-10.5,33.5-10.5c13.8,0,25.1,3.3,34.2,9.9
			c9,6.6,14.4,14.9,16.1,24.9H300.2C302.8,675.1,308.4,667,317,660z"/>
		<path fill="#FFFCFF" d="M455.8,701.9v28.8h-41c-0.4-4.3-0.6-8.8-0.6-13.3v-5.2c0-17.2,2.9-32.7,8.6-46.4c3.7-8.8,8.3-16.8,13.8-24
			c5.8,7.9,10.2,16.4,13.2,25.5C453.8,679.2,455.8,690.7,455.8,701.9z"/>
		<path fill="#0CE7FF" d="M468.4,713.5v2.6c0,9.5,1.5,17.8,4.5,25.1c3,7.3,7.1,13.4,12.2,18.3c5.2,4.9,11.2,8.5,18.1,11
			c6.9,2.4,14.2,3.7,21.9,3.7c16.6,0,29.3-4.2,38-12.5c8.7-8.3,14.4-19.5,17-33.5l45.3,11.3v27.7c-6.2,13.7-15,25.5-26.6,35.3
			c-18.2,15.5-42.5,23.2-72.9,23.2c-15.8,0-30.5-2.4-44.1-7.3c-13.6-4.9-25.4-11.9-35.5-21.1c-3.4-3.1-6.5-6.4-9.4-10
			c-5.5-6.8-10.1-14.4-13.8-22.9c-0.2-0.3-0.3-0.7-0.5-1c-4.2-9.9-6.9-20.8-8-32.7h41v-28.8c0-11.2-2-22.7-6-34.6
			c-3.1-9.1-7.5-17.6-13.2-25.5c3.1-4,6.4-7.7,10.1-11.2c10.2-9.7,22.1-17.2,35.7-22.4c13.6-5.2,28.2-7.7,43.6-7.7
			c15.2,0,28.9,2,41.1,6h-4.8v51.6h62.7c0.2,0.4,0.3,0.7,0.5,1.1v27.6l-45.3,11.7c-1.7-12.6-7.2-23.5-16.3-32.7
			c-9.2-9.2-22.1-13.8-38.7-13.8c-7.7,0-15,1.4-21.9,4.3c-6.9,2.9-12.9,7-18.1,12.2c-5.2,5.3-9.2,11.8-12.2,19.3
			C469.9,695.5,468.4,704.1,468.4,713.5z"/>
		<path fill="#EDEEFF" d="M624.9,658.1h-62.7v-51.6h4.8c11.8,3.9,22.3,9.6,31.3,17.2C609.9,633.3,618.7,644.7,624.9,658.1z"/>
		<path fill="#EC4848" d="M679.6,658.1v97.1c0,8.6,3.9,12.9,11.6,12.9h57.6v51.6h-90.3c-9.7,0-17.7-3.2-23.9-9.5
			c-6.2-6.3-9.2-14.3-9.2-24.1V658.1h-0.5c-6.2-13.3-15.1-24.8-26.5-34.4c-9.1-7.6-19.5-13.3-31.3-17.2h58.3v-87.7h54.2v87.7h76.9
			v51.6H679.6z"/>
	</g>
</g>
<image width="152" height="294" xlink:href="845ADC02.jpg"  transform="matrix(3.4735 0 0 3.4735 1705 296)">
</image>
</svg>
