<svg id="Layer_1" data-name="Layer 1" xmlns="http://www.w3.org/2000/svg" viewBox="0 0 500 750"><defs><style>.cls-1{fill:#3a3a3a;}.cls-2{fill:#4c4c4c;}</style></defs><rect class="cls-1" width="500" height="750"/><path class="cls-2" d="M368.58,247H130.91C116.28,247,104,259.3,104,274.45v201.1C104,490.7,116.28,503,130.91,503H368.58A27.42,27.42,0,0,0,396,475.55V274.45A27.1,27.1,0,0,0,368.58,247ZM167.47,461.84a4.57,4.57,0,0,1-4.57,4.57H135.48a4.58,4.58,0,0,1-4.57-4.57V434.42a4.57,4.57,0,0,1,4.57-4.57h26.91a4.57,4.57,0,0,1,4.57,4.57Zm0-73.13a4.56,4.56,0,0,1-4.57,4.57H135.48a4.57,4.57,0,0,1-4.57-4.57V361.29a4.57,4.57,0,0,1,4.57-4.57h26.91a4.57,4.57,0,0,1,4.57,4.57v27.42Zm0-73.13a4.56,4.56,0,0,1-4.57,4.57H135.48a4.57,4.57,0,0,1-4.57-4.57V288.16a4.58,4.58,0,0,1,4.57-4.57h26.91a4.58,4.58,0,0,1,4.57,4.57ZM304.59,457.27a9.14,9.14,0,0,1-9.14,9.14H204a9.14,9.14,0,0,1-9.14-9.14V402.42a9.14,9.14,0,0,1,9.14-9.14h91.41a9.14,9.14,0,0,1,9.14,9.14Zm0-109.69a9.14,9.14,0,0,1-9.14,9.14H204a9.14,9.14,0,0,1-9.14-9.14V292.73a9.14,9.14,0,0,1,9.14-9.14h91.41a9.14,9.14,0,0,1,9.14,9.14Zm64,114.26a4.58,4.58,0,0,1-4.57,4.57H337.1c-2.53,0-4.06-2.05-4.06-4.57V434.42a4.57,4.57,0,0,1,4.57-4.57h26.91a4.57,4.57,0,0,1,4.57,4.57v27.42Zm0-73.13a4.57,4.57,0,0,1-4.57,4.57H337.1a4.56,4.56,0,0,1-4.57-4.57V361.29a4.56,4.56,0,0,1,4.57-4.57H364a4.57,4.57,0,0,1,4.57,4.57Zm0-73.13a4.57,4.57,0,0,1-4.57,4.57H337.1a4.56,4.56,0,0,1-4.57-4.57V288.16a4.5,4.5,0,0,1,4.05-4.57h26.91a4.57,4.57,0,0,1,4.57,4.57v27.42Z"/></svg>